<mxfile host="app.diagrams.net" modified="2022-03-04T10:03:33.987Z" agent="5.0 (Windows)" etag="2FWIMxz-lkBc9Nwvrurh" version="16.6.5" type="github">
  <diagram id="ekoLyjdb9-5tSitK-BV1" name="Page-1">
    <mxGraphModel dx="942" dy="572" grid="1" gridSize="10" guides="1" tooltips="1" connect="1" arrows="1" fold="1" page="1" pageScale="1" pageWidth="827" pageHeight="1169" math="0" shadow="0">
      <root>
        <mxCell id="0" />
        <mxCell id="1" parent="0" />
        <mxCell id="KunesZg3lmrrYPwm2_ex-22" value="" style="rounded=1;whiteSpace=wrap;html=1;fillColor=#e1d5e7;strokeColor=#9673a6;" vertex="1" parent="1">
          <mxGeometry x="170" y="519.25" width="240" height="100.75" as="geometry" />
        </mxCell>
        <mxCell id="KunesZg3lmrrYPwm2_ex-1" value="Access Center" style="rounded=1;whiteSpace=wrap;html=1;fillColor=#dae8fc;strokeColor=#6c8ebf;labelPosition=center;verticalLabelPosition=top;align=center;verticalAlign=bottom;" vertex="1" parent="1">
          <mxGeometry x="120" y="70" width="580" height="400" as="geometry" />
        </mxCell>
        <mxCell id="KunesZg3lmrrYPwm2_ex-3" value="" style="sketch=0;aspect=fixed;html=1;points=[];align=center;image;fontSize=12;image=img/lib/mscae/Cache_Redis_Product.svg;" vertex="1" parent="1">
          <mxGeometry x="305" y="548.63" width="50" height="42" as="geometry" />
        </mxCell>
        <mxCell id="KunesZg3lmrrYPwm2_ex-6" value="" style="outlineConnect=0;dashed=0;verticalLabelPosition=bottom;verticalAlign=top;align=center;html=1;shape=mxgraph.aws3.mysql_db_instance;fillColor=#2E73B8;gradientColor=none;" vertex="1" parent="1">
          <mxGeometry x="190" y="537.38" width="60" height="64.5" as="geometry" />
        </mxCell>
        <mxCell id="KunesZg3lmrrYPwm2_ex-7" value="Controller Layer" style="rounded=0;whiteSpace=wrap;html=1;fillColor=#b0e3e6;strokeColor=#0e8088;" vertex="1" parent="1">
          <mxGeometry x="170" y="90" width="480" height="60" as="geometry" />
        </mxCell>
        <mxCell id="KunesZg3lmrrYPwm2_ex-8" value="Service Layer" style="rounded=0;whiteSpace=wrap;html=1;fillColor=#b1ddf0;strokeColor=#10739e;" vertex="1" parent="1">
          <mxGeometry x="170" y="195" width="480" height="60" as="geometry" />
        </mxCell>
        <mxCell id="KunesZg3lmrrYPwm2_ex-9" value="Repository Layer" style="rounded=0;whiteSpace=wrap;html=1;fillColor=#d0cee2;strokeColor=#56517e;" vertex="1" parent="1">
          <mxGeometry x="170" y="304" width="480" height="60" as="geometry" />
        </mxCell>
        <mxCell id="KunesZg3lmrrYPwm2_ex-10" value="DAO Layer" style="rounded=0;whiteSpace=wrap;html=1;fillColor=#bac8d3;strokeColor=#23445d;" vertex="1" parent="1">
          <mxGeometry x="170" y="402" width="240" height="60" as="geometry" />
        </mxCell>
        <mxCell id="KunesZg3lmrrYPwm2_ex-11" value="Other System" style="aspect=fixed;perimeter=ellipsePerimeter;html=1;align=center;shadow=0;dashed=0;spacingTop=3;image;image=img/lib/active_directory/generic_server.svg;" vertex="1" parent="1">
          <mxGeometry x="516" y="544.63" width="28.000000000000004" height="50" as="geometry" />
        </mxCell>
        <mxCell id="KunesZg3lmrrYPwm2_ex-12" value="Http Client Layer" style="rounded=0;whiteSpace=wrap;html=1;fillColor=#bac8d3;strokeColor=#23445d;" vertex="1" parent="1">
          <mxGeometry x="410" y="402" width="240" height="60" as="geometry" />
        </mxCell>
        <mxCell id="KunesZg3lmrrYPwm2_ex-13" value="" style="shape=flexArrow;endArrow=classic;html=1;rounded=0;exitX=0.5;exitY=1;exitDx=0;exitDy=0;fillColor=#fff2cc;strokeColor=#d6b656;" edge="1" parent="1" source="KunesZg3lmrrYPwm2_ex-7" target="KunesZg3lmrrYPwm2_ex-8">
          <mxGeometry width="50" height="50" relative="1" as="geometry">
            <mxPoint x="370" y="320" as="sourcePoint" />
            <mxPoint x="410" y="170" as="targetPoint" />
          </mxGeometry>
        </mxCell>
        <mxCell id="KunesZg3lmrrYPwm2_ex-15" value="" style="shape=flexArrow;endArrow=classic;html=1;rounded=0;exitX=0.5;exitY=1;exitDx=0;exitDy=0;fillColor=#fff2cc;strokeColor=#d6b656;" edge="1" parent="1" source="KunesZg3lmrrYPwm2_ex-8" target="KunesZg3lmrrYPwm2_ex-9">
          <mxGeometry width="50" height="50" relative="1" as="geometry">
            <mxPoint x="420" y="160" as="sourcePoint" />
            <mxPoint x="420" y="205" as="targetPoint" />
          </mxGeometry>
        </mxCell>
        <mxCell id="KunesZg3lmrrYPwm2_ex-16" value="" style="shape=flexArrow;endArrow=classic;html=1;rounded=0;exitX=0.25;exitY=1;exitDx=0;exitDy=0;fillColor=#fff2cc;strokeColor=#d6b656;" edge="1" parent="1" source="KunesZg3lmrrYPwm2_ex-9" target="KunesZg3lmrrYPwm2_ex-10">
          <mxGeometry width="50" height="50" relative="1" as="geometry">
            <mxPoint x="430" y="170" as="sourcePoint" />
            <mxPoint x="430" y="215" as="targetPoint" />
          </mxGeometry>
        </mxCell>
        <mxCell id="KunesZg3lmrrYPwm2_ex-18" value="" style="shape=flexArrow;endArrow=classic;html=1;rounded=0;exitX=0.75;exitY=1;exitDx=0;exitDy=0;fillColor=#fff2cc;strokeColor=#d6b656;" edge="1" parent="1" source="KunesZg3lmrrYPwm2_ex-9" target="KunesZg3lmrrYPwm2_ex-12">
          <mxGeometry width="50" height="50" relative="1" as="geometry">
            <mxPoint x="535" y="360" as="sourcePoint" />
            <mxPoint x="297.2058823529412" y="412" as="targetPoint" />
          </mxGeometry>
        </mxCell>
        <mxCell id="KunesZg3lmrrYPwm2_ex-19" value="" style="shape=flexArrow;endArrow=classic;html=1;rounded=0;exitX=0.5;exitY=1;exitDx=0;exitDy=0;entryX=0.5;entryY=0;entryDx=0;entryDy=0;fillColor=#fff2cc;strokeColor=#d6b656;" edge="1" parent="1" source="KunesZg3lmrrYPwm2_ex-10" target="KunesZg3lmrrYPwm2_ex-22">
          <mxGeometry width="50" height="50" relative="1" as="geometry">
            <mxPoint x="300" y="374" as="sourcePoint" />
            <mxPoint x="297.2058823529412" y="412" as="targetPoint" />
          </mxGeometry>
        </mxCell>
        <mxCell id="KunesZg3lmrrYPwm2_ex-21" value="" style="shape=flexArrow;endArrow=classic;html=1;rounded=0;exitX=0.5;exitY=1;exitDx=0;exitDy=0;fillColor=#fff2cc;strokeColor=#d6b656;" edge="1" parent="1" source="KunesZg3lmrrYPwm2_ex-12" target="KunesZg3lmrrYPwm2_ex-11">
          <mxGeometry width="50" height="50" relative="1" as="geometry">
            <mxPoint x="295" y="472" as="sourcePoint" />
            <mxPoint x="341" y="535.982" as="targetPoint" />
          </mxGeometry>
        </mxCell>
      </root>
    </mxGraphModel>
  </diagram>
</mxfile>
